<?xml version="1.0" encoding="UTF-8" standalone="no"?>
<!DOCTYPE svg PUBLIC "-//W3C//DTD SVG 1.1//EN" "http://www.w3.org/Graphics/SVG/1.1/DTD/svg11.dtd">
<svg xmlns="http://www.w3.org/2000/svg" version="1.1" viewBox="0 0 538 426">
<path fill="#f9af47" d="
  M 265.29 79.50
  C 265.29 92.62 254.66 103.25 241.54 103.25
  C 228.42 103.25 217.79 92.62 217.79 79.50
  C 217.79 66.38 228.42 55.75 241.54 55.75
  C 254.66 55.75 265.29 66.38 265.29 79.50
  Z
  M 251.47 79.52
  C 251.47 74.05 247.03 69.61 241.56 69.61
  C 236.09 69.61 231.65 74.05 231.65 79.52
  C 231.65 84.99 236.09 89.43 241.56 89.43
  C 247.03 89.43 251.47 84.99 251.47 79.52
  Z"
/>
<path fill="#922bc4" d="
  M 369.90 99.96
  C 369.90 113.21 359.16 123.95 345.91 123.95
  C 332.66 123.95 321.92 113.21 321.92 99.96
  C 321.92 86.71 332.66 75.97 345.91 75.97
  C 359.16 75.97 369.90 86.71 369.90 99.96
  Z
  M 355.55 99.98
  C 355.55 94.64 351.22 90.31 345.88 90.31
  C 340.54 90.31 336.21 94.64 336.21 99.98
  C 336.21 105.32 340.54 109.65 345.88 109.65
  C 351.22 109.65 355.55 105.32 355.55 99.98
  Z"
/>
<path fill="#f9af47" d="
  M 260.59 104.57
  Q 278.59 84.03 306.18 83.00
  C 306.75 82.98 307.23 83.42 307.22 83.97
  L 307.04 96.24
  C 307.03 96.53 306.79 96.76 306.49 96.78
  Q 277.90 98.73 264.83 122.45
  Q 261.91 127.76 260.54 132.98
  Q 259.07 138.56 259.00 144.36
  C 258.99 144.72 258.71 145.00 258.35 145.00
  L 245.75 145.00
  C 245.43 145.00 245.16 144.73 245.17 144.41
  Q 245.84 121.40 260.59 104.57
  Z"
/>
<path fill="#ad3ba6" d="
  M 207.93 109.49
  Q 199.58 121.04 198.42 134.76
  Q 197.54 145.16 200.79 154.47
  Q 204.18 164.18 211.76 172.16
  C 211.95 172.36 211.95 172.68 211.75 172.89
  L 203.70 181.20
  C 202.99 181.93 201.83 181.95 201.13 181.23
  Q 184.44 163.86 184.00 139.98
  Q 183.82 129.67 186.77 120.27
  Q 191.17 106.25 201.62 95.38
  C 202.00 94.99 202.61 94.98 202.98 95.36
  L 211.60 104.19
  C 211.81 104.40 211.84 104.73 211.68 104.99
  Q 210.91 106.26 209.88 107.32
  Q 208.40 108.85 207.93 109.49
  Z"
/>
<path fill="#922bc4" d="
  M 177.29 138.67
  C 177.29 151.91 166.55 162.65 153.31 162.65
  C 140.07 162.65 129.33 151.91 129.33 138.67
  C 129.33 125.43 140.07 114.69 153.31 114.69
  C 166.55 114.69 177.29 125.43 177.29 138.67
  Z
  M 162.96 138.70
  C 162.96 133.36 158.64 129.04 153.30 129.04
  C 147.96 129.04 143.64 133.36 143.64 138.70
  C 143.64 144.04 147.96 148.36 153.30 148.36
  C 158.64 148.36 162.96 144.04 162.96 138.70
  Z"
/>
<path fill="#8221d7" d="
  M 380.93 157.68
  C 380.22 158.37 379.09 158.38 378.35 157.71
  Q 364.57 145.24 346.00 145.20
  Q 328.03 145.16 313.36 157.60
  C 312.57 158.27 311.43 158.27 310.73 157.59
  L 302.81 149.88
  C 302.23 149.31 302.26 148.36 302.87 147.79
  Q 316.75 134.80 335.31 131.54
  Q 345.32 129.78 355.20 131.38
  Q 374.07 134.44 388.85 147.95
  C 389.45 148.50 389.46 149.43 388.89 149.98
  L 380.93 157.68
  Z"
/>
<path fill="#f9af47" d="
  M 428.86 188.09
  C 428.86 201.22 418.22 211.86 405.09 211.86
  C 391.96 211.86 381.32 201.22 381.32 188.09
  C 381.32 174.96 391.96 164.32 405.09 164.32
  C 418.22 164.32 428.86 174.96 428.86 188.09
  Z
  M 415.02 188.10
  C 415.02 182.63 410.59 178.20 405.12 178.20
  C 399.65 178.20 395.22 182.63 395.22 188.10
  C 395.22 193.57 399.65 198.00 405.12 198.00
  C 410.59 198.00 415.02 193.57 415.02 188.10
  Z"
/>
<path fill="#f89838" d="
  M 153.00 219.00
  Q 136.96 201.64 136.50 177.83
  C 136.49 177.52 136.74 177.26 137.04 177.27
  L 149.75 177.47
  C 150.03 177.47 150.26 177.70 150.27 178.00
  Q 151.14 198.59 165.19 212.06
  Q 177.86 224.21 197.45 225.36
  C 198.06 225.40 198.53 225.93 198.51 226.56
  L 198.18 238.69
  C 198.17 238.96 197.95 239.18 197.69 239.17
  Q 170.97 238.46 153.00 219.00
  Z"
/>
<path fill="#242424" d="
  M 247.57 209.26
  Q 253.40 199.62 261.81 190.06
  Q 267.43 183.68 275.58 183.89
  Q 277.55 183.94 278.78 184.69
  Q 281.01 186.06 279.72 188.39
  Q 278.21 191.10 275.62 189.39
  Q 273.42 187.94 271.31 188.19
  Q 269.78 188.37 267.66 190.14
  Q 261.89 195.00 257.38 201.64
  C 257.20 201.90 257.17 202.24 257.30 202.54
  Q 262.96 215.59 268.56 228.12
  Q 273.69 239.59 280.06 248.44
  Q 281.42 250.32 284.17 252.33
  Q 287.30 254.61 290.18 252.38
  C 290.46 252.16 290.78 252.06 291.05 252.10
  Q 292.32 252.28 291.56 253.44
  Q 291.26 253.91 290.62 254.19
  Q 287.70 255.49 284.66 256.53
  Q 284.05 256.74 283.32 256.66
  Q 280.55 256.37 282.35 258.04
  Q 282.79 258.44 283.34 258.73
  Q 287.05 260.65 289.94 258.44
  Q 295.31 254.32 295.53 246.25
  Q 296.05 226.84 295.58 207.44
  C 295.57 207.15 295.35 206.91 295.07 206.90
  L 289.57 206.69
  C 289.24 206.67 288.96 206.50 288.86 206.24
  Q 288.49 205.25 288.86 204.27
  C 288.96 203.99 289.23 203.81 289.55 203.80
  L 295.19 203.70
  C 295.46 203.69 295.68 203.47 295.67 203.20
  Q 295.51 196.88 297.00 192.75
  Q 298.69 188.07 304.14 185.75
  Q 312.96 181.99 321.44 185.56
  Q 323.95 186.62 323.56 188.89
  Q 323.24 190.76 321.70 191.58
  Q 319.70 192.65 317.94 189.81
  Q 316.10 186.87 313.17 187.15
  Q 310.71 187.38 309.33 189.76
  Q 308.04 191.97 308.10 194.66
  Q 308.17 197.73 308.17 197.84
  Q 308.08 200.51 308.27 203.19
  C 308.29 203.46 308.52 203.67 308.81 203.68
  L 315.76 203.95
  C 316.07 203.96 316.34 204.15 316.47 204.44
  Q 317.62 206.93 314.50 206.81
  Q 311.65 206.70 308.89 206.81
  C 308.37 206.83 307.96 207.26 307.98 207.78
  Q 308.39 222.62 308.34 236.75
  Q 308.32 240.94 307.51 244.99
  Q 306.62 249.43 304.69 252.71
  Q 299.12 262.22 287.48 262.54
  Q 283.85 262.65 282.02 262.44
  Q 278.93 262.10 276.81 260.44
  Q 275.38 259.31 275.42 256.82
  C 275.42 256.51 275.24 256.24 274.97 256.14
  Q 267.53 253.27 263.25 246.00
  Q 254.26 230.71 248.61 215.53
  C 248.50 215.25 248.20 215.13 247.99 215.28
  Q 247.22 215.85 247.25 217.50
  Q 247.45 230.57 247.00 240.00
  Q 246.84 243.42 243.50 244.50
  Q 241.80 245.05 239.12 244.76
  Q 236.54 244.48 235.40 243.23
  Q 234.00 241.69 234.00 239.00
  Q 234.00 216.25 234.00 192.65
  Q 234.00 190.31 231.67 190.20
  Q 228.81 190.06 225.96 191.64
  Q 223.06 193.26 221.54 194.86
  Q 219.48 197.02 219.45 200.22
  Q 219.43 202.30 220.68 203.23
  Q 222.39 204.49 224.70 202.42
  Q 226.41 200.90 228.09 202.44
  Q 230.47 204.62 229.06 208.06
  Q 228.28 209.97 226.44 210.99
  Q 224.93 211.81 222.80 211.85
  Q 218.28 211.92 215.98 208.64
  Q 214.11 205.97 214.40 202.02
  Q 214.83 196.11 219.69 192.44
  Q 227.14 186.80 236.99 186.89
  Q 241.23 186.93 242.00 187.06
  Q 243.81 187.38 245.26 188.53
  Q 246.50 189.52 246.82 191.48
  Q 247.54 195.94 247.21 200.50
  Q 246.89 204.85 247.27 209.19
  Q 247.31 209.69 247.57 209.26
  Z"
/>
<path fill="#f9af47" d="
  M 381.56 208.44
  Q 400.71 226.31 401.43 253.18
  C 401.44 253.46 401.22 253.69 400.94 253.70
  L 388.51 253.74
  C 388.01 253.75 387.59 253.34 387.56 252.83
  Q 386.22 228.35 367.44 214.84
  Q 355.19 206.02 340.59 205.76
  C 340.00 205.75 339.54 205.30 339.55 204.75
  L 339.77 192.32
  C 339.77 192.04 340.01 191.81 340.31 191.82
  Q 364.42 192.44 381.56 208.44
  Z"
/>
<path fill="#f9af47" d="
  M 156.59 242.90
  C 156.59 256.02 145.96 266.65 132.84 266.65
  C 119.72 266.65 109.09 256.02 109.09 242.90
  C 109.09 229.78 119.72 219.15 132.84 219.15
  C 145.96 219.15 156.59 229.78 156.59 242.90
  Z
  M 142.76 242.93
  C 142.76 237.46 138.32 233.02 132.85 233.02
  C 127.38 233.02 122.94 237.46 122.94 242.93
  C 122.94 248.40 127.38 252.84 132.85 252.84
  C 138.32 252.84 142.76 248.40 142.76 242.93
  Z"
/>
<path fill="#ad3ba6" d="
  M 335.43 232.00
  C 335.70 231.73 336.15 231.75 336.42 232.04
  Q 352.86 249.52 353.93 272.44
  Q 354.41 282.71 351.57 292.19
  Q 347.37 306.19 336.90 317.79
  C 336.33 318.43 335.34 318.46 334.73 317.85
  L 326.32 309.44
  C 326.15 309.27 326.14 309.00 326.31 308.82
  Q 333.66 300.83 337.12 290.94
  Q 340.42 281.50 339.55 271.27
  Q 338.13 254.57 326.33 241.61
  C 326.14 241.40 326.14 241.08 326.33 240.89
  L 335.43 232.00
  Z"
/>
<path fill="#922bc4" d="
  M 408.63 292.32
  C 408.63 305.56 397.90 316.29 384.66 316.29
  C 371.42 316.29 360.69 305.56 360.69 292.32
  C 360.69 279.08 371.42 268.35 384.66 268.35
  C 397.90 268.35 408.63 279.08 408.63 292.32
  Z
  M 394.32 292.30
  C 394.32 286.97 390.00 282.65 384.67 282.65
  C 379.34 282.65 375.02 286.97 375.02 292.30
  C 375.02 297.63 379.34 301.95 384.67 301.95
  C 390.00 301.95 394.32 297.63 394.32 292.30
  Z"
/>
<path fill="#8724d1" d="
  M 229.56 287.56
  Q 214.41 298.67 196.99 300.17
  Q 187.01 301.03 177.15 298.53
  Q 161.26 294.51 148.75 282.77
  C 148.40 282.44 148.39 281.89 148.72 281.55
  L 156.69 273.44
  Q 157.96 272.15 159.35 273.36
  Q 167.70 280.58 177.26 283.80
  Q 186.69 286.97 196.99 285.95
  Q 213.07 284.34 225.46 272.66
  C 225.68 272.45 226.02 272.45 226.23 272.65
  L 235.41 281.62
  C 235.62 281.82 235.63 282.16 235.44 282.39
  Q 233.71 284.52 229.56 287.56
  Z"
/>
<path fill="#f89838" d="
  M 231.84 347.82
  C 231.24 347.79 230.77 347.31 230.78 346.74
  L 230.96 334.75
  C 230.97 334.47 231.20 334.24 231.49 334.22
  Q 254.19 332.97 267.69 316.69
  Q 278.08 304.14 278.79 286.83
  C 278.81 286.37 279.19 286.00 279.65 286.00
  L 292.05 286.00
  C 292.46 286.00 292.79 286.34 292.77 286.75
  Q 292.00 306.32 281.19 321.94
  Q 268.30 340.56 245.32 346.04
  Q 240.69 347.14 238.67 347.47
  Q 235.26 348.02 231.84 347.82
  Z"
/>
<path fill="#922bc4" d="
  M 216.07 331.01
  C 216.07 344.26 205.32 355.01 192.07 355.01
  C 178.82 355.01 168.07 344.26 168.07 331.01
  C 168.07 317.76 178.82 307.01 192.07 307.01
  C 205.32 307.01 216.07 317.76 216.07 331.01
  Z
  M 201.76 331.05
  C 201.76 325.73 197.44 321.41 192.12 321.41
  C 186.80 321.41 182.48 325.73 182.48 331.05
  C 182.48 336.37 186.80 340.69 192.12 340.69
  C 197.44 340.69 201.76 336.37 201.76 331.05
  Z"
/>
<path fill="#f9af47" d="
  M 320.16 351.48
  C 320.16 364.60 309.52 375.24 296.40 375.24
  C 283.28 375.24 272.64 364.60 272.64 351.48
  C 272.64 338.36 283.28 327.72 296.40 327.72
  C 309.52 327.72 320.16 338.36 320.16 351.48
  Z
  M 306.32 351.52
  C 306.32 346.05 301.88 341.61 296.41 341.61
  C 290.94 341.61 286.50 346.05 286.50 351.52
  C 286.50 356.99 290.94 361.43 296.41 361.43
  C 301.88 361.43 306.32 356.99 306.32 351.52
  Z"
/>
</svg>
